<svg width="100%" height="100%" viewBox="0 0 3070 600" xmlns="http://www.w3.org/2000/svg">
  <!--M-->
  <path d="M 50 550 L 50 218 A 1.0 1.0 0 0 1 350 218 L 350 417 L 350 218 A 149 149 0 0 1 590 100" fill="none" stroke="white" stroke-width="100" stroke-linecap="round" stroke-linejoin="round"></path>
  
  <g transform="translate(-150,-200)">
  <!--Atom Up-->
  <line x1="730" y1="759" x2="730" y2="479" stroke-width="50" stroke="white" stroke-linecap="round" stroke-linejoin="round">
  </line>
  <circle cx="730" cy="479" r="65" style="fill:white;">
  </circle>
  <!--Atom Left-->
  <line x1="730" y1="759" x2="450" y2="759" stroke-width="50" stroke="white" stroke-linecap="round" stroke-linejoin="round">
  </line>
  <circle cx="450" cy="759" r="65" style="fill:white;">
  </circle>
  <!--Atom Center-->
  <circle cx="730" cy="759" r="65" style="fill:white;">
  </circle>
  </g>

  <!--o-->
  <circle cx="970" cy="350" r="200" fill="none" stroke="white" stroke-width="100" stroke-linecap="round" stroke-linejoin="round"></circle>
  <!--d-->
  <path d="M 1690 350 L 1690 50" fill="none" stroke="white" stroke-width="100" stroke-linecap="round" stroke-linejoin="round"></path>
  <circle cx="1490" cy="350" r="200" fill="none" stroke="white" stroke-width="100" stroke-linecap="round" stroke-linejoin="round"></circle>
  <!--a-->
  <path d="M 2210 350 L 2210 550" fill="none" stroke="white" stroke-width="100" stroke-linecap="round" stroke-linejoin="round"></path>
  <circle cx="2010" cy="350" r="200" fill="none" stroke="white" stroke-width="100" stroke-linecap="round" stroke-linejoin="round"></circle>
  <!--l-->
  <path d="M 2380 50 L 2380 450 C 2380 550 2390 550 2400 550" fill="none" stroke="white" stroke-width="100" stroke-linecap="round" stroke-linejoin="round"></path>
  <!--i-->
  <path d="M 2550 250 L 2550 550" fill="none" stroke="white" stroke-width="100" stroke-linecap="round" stroke-linejoin="round"></path>
  <circle cx="2550" cy="100" r="50" fill="white"></circle>
  <!--s-->
  <path d="M 3020 250 A 150 100 0 1 0 2870 350 A 150 100 0 1 1 2720 450" fill="none" stroke="white" stroke-width="100" stroke-linecap="round" stroke-linejoin="round" />
</svg>
