<svg version="1.1" id="Layer_1" xmlns="http://www.w3.org/2000/svg" xmlns:xlink="http://www.w3.org/1999/xlink" x="0px" y="0px" width="100%" viewBox="0 0 354 134" enable-background="new 0 0 354 134" xml:space="preserve">
<path fill="none" opacity="1.000000" stroke="none" d="&#xA;M236.000000,135.000000 &#xA;&#x9;C157.333344,135.000000 79.166687,135.000000 1.000021,135.000000 &#xA;&#x9;C1.000014,90.333351 1.000014,45.666695 1.000007,1.000033 &#xA;&#x9;C118.999969,1.000022 236.999939,1.000022 354.999939,1.000011 &#xA;&#x9;C354.999939,45.666630 354.999939,90.333260 354.999969,134.999939 &#xA;&#x9;C315.500000,135.000000 276.000000,135.000000 236.000000,135.000000 &#xA;M308.828522,53.106762 &#xA;&#x9;C309.394379,54.733906 310.364258,56.340500 310.448273,57.992157 &#xA;&#x9;C310.675476,62.459026 310.526093,66.945053 310.526093,71.754135 &#xA;&#x9;C310.599792,71.671410 310.429169,71.962524 310.176758,72.131569 &#xA;&#x9;C304.769135,75.753365 302.889191,79.764587 304.369995,84.561714 &#xA;&#x9;C305.731750,88.973129 310.076355,92.132210 314.521851,91.943420 &#xA;&#x9;C318.841278,91.759995 323.028290,88.415230 324.001221,84.370888 &#xA;&#x9;C325.305176,78.950470 323.396210,75.542732 317.364349,71.954697 &#xA;&#x9;C316.478790,71.427895 315.566071,70.015373 315.592438,69.037636 &#xA;&#x9;C315.766449,62.579170 313.625336,55.674740 320.601837,50.699707 &#xA;&#x9;C323.321442,48.760323 324.746307,47.700043 326.886658,50.628426 &#xA;&#x9;C329.512054,54.220451 332.976105,55.740826 337.321228,54.713890 &#xA;&#x9;C342.165924,53.568890 345.357910,49.315094 345.209412,44.524937 &#xA;&#x9;C345.067535,39.948647 341.662140,35.827911 337.244843,34.887390 &#xA;&#x9;C332.198303,33.812901 327.709686,35.763184 325.741913,40.505703 &#xA;&#x9;C324.072632,44.528805 322.648071,45.700108 319.402863,41.775177 &#xA;&#x9;C318.278076,40.414783 315.984192,40.000153 314.197296,39.215008 &#xA;&#x9;C312.896423,38.643414 311.293243,38.474178 310.273315,37.601448 &#xA;&#x9;C306.998627,34.799358 303.932190,31.753887 300.913177,28.922132 &#xA;&#x9;C306.724243,18.819984 306.072174,11.566140 299.239655,6.035388 &#xA;&#x9;C293.387115,1.297895 285.066254,1.609205 279.675171,6.767353 &#xA;&#x9;C273.240112,12.924371 273.386139,20.840059 280.262512,30.717556 &#xA;&#x9;C277.648071,33.841110 274.868042,36.928955 272.369843,40.230072 &#xA;&#x9;C270.727936,42.399681 269.071350,43.318478 266.158630,43.065773 &#xA;&#x9;C261.209259,42.636360 258.060608,45.531990 256.503204,50.087006 &#xA;&#x9;C255.119659,54.133495 256.938446,58.979618 260.651794,61.444153 &#xA;&#x9;C264.653198,64.099892 268.736481,63.667431 272.185516,60.747383 &#xA;&#x9;C275.735199,57.742111 277.001160,53.828197 275.210205,49.068806 &#xA;&#x9;C274.672943,47.641045 274.990753,45.325459 275.853455,44.050285 &#xA;&#x9;C277.890747,41.038929 280.460938,38.381851 282.881744,35.639885 &#xA;&#x9;C283.624939,34.798065 284.598419,33.490128 285.439514,33.510452 &#xA;&#x9;C291.899933,33.666557 299.441254,30.159544 303.686157,38.540649 &#xA;&#x9;C304.186737,39.528996 305.473724,40.101395 306.057190,41.070652 &#xA;&#x9;C306.581604,41.941753 306.711761,43.081245 306.889679,44.123878 &#xA;&#x9;C307.367310,46.922695 307.777344,49.733047 308.828522,53.106762 &#xA;M142.146881,99.245049 &#xA;&#x9;C137.220474,90.203079 132.339386,81.135773 127.316437,72.147751 &#xA;&#x9;C126.601959,70.869286 125.295853,69.201965 124.095909,69.051483 &#xA;&#x9;C120.724052,68.628616 117.264626,68.903954 113.783401,68.903954 &#xA;&#x9;C113.783401,87.973160 113.783401,106.413948 113.783401,124.986267 &#xA;&#x9;C117.597931,124.986267 121.180138,124.986267 125.282211,124.986267 &#xA;&#x9;C125.282211,113.415543 125.282211,102.089211 125.282211,89.415794 &#xA;&#x9;C126.616173,91.581284 127.244278,92.508553 127.780739,93.486122 &#xA;&#x9;C132.973465,102.948593 138.090683,112.453476 143.398560,121.850746 &#xA;&#x9;C144.178497,123.231575 145.736969,124.882324 147.119232,125.072769 &#xA;&#x9;C150.505264,125.539299 153.998871,125.225159 157.467163,125.225159 &#xA;&#x9;C157.467163,106.172005 157.467163,87.637093 157.467163,69.270836 &#xA;&#x9;C153.331604,69.270836 149.596848,69.270836 145.583588,69.270836 &#xA;&#x9;C145.583588,81.032173 145.583588,92.413574 145.583588,104.867386 &#xA;&#x9;C144.194199,102.587547 143.361557,101.221283 142.146881,99.245049 &#xA;M272.357239,105.701729 &#xA;&#x9;C276.371155,105.182808 278.641632,106.967201 280.187225,110.708763 &#xA;&#x9;C281.890076,114.830910 284.186340,118.724625 286.440277,122.591843 &#xA;&#x9;C287.083221,123.695000 288.416138,124.996658 289.540131,125.106377 &#xA;&#x9;C292.926971,125.436989 296.366699,125.225647 300.511902,125.225647 &#xA;&#x9;C296.253204,117.843483 292.405396,111.173576 288.488617,104.384087 &#xA;&#x9;C289.396759,103.756607 290.071472,103.290199 290.746399,102.824081 &#xA;&#x9;C297.739105,97.995087 300.284088,90.443237 298.009796,81.270882 &#xA;&#x9;C296.372101,74.665886 290.587372,69.685791 282.624603,69.180351 &#xA;&#x9;C274.891357,68.689468 267.102570,69.073807 259.260956,69.073807 &#xA;&#x9;C259.260956,87.911247 259.260956,106.462738 259.260956,124.949287 &#xA;&#x9;C263.280884,124.949287 267.014709,124.949287 271.431122,124.949287 &#xA;&#x9;C271.431122,118.389793 271.431122,112.115067 272.357239,105.701729 &#xA;M238.643005,117.843826 &#xA;&#x9;C240.810532,126.334869 241.550659,126.686104 253.516785,124.656555 &#xA;&#x9;C247.340408,106.078842 241.182465,87.556549 234.970551,68.871925 &#xA;&#x9;C230.920181,68.871925 227.084412,68.671082 223.292007,68.988441 &#xA;&#x9;C222.078644,69.089981 220.307770,70.334251 219.929504,71.443573 &#xA;&#x9;C213.890961,89.152534 208.037125,106.924477 202.036377,124.997627 &#xA;&#x9;C206.467941,124.997627 210.566772,124.997627 214.886139,124.997627 &#xA;&#x9;C216.044830,121.305092 217.205551,117.606056 218.338074,113.996941 &#xA;&#x9;C224.028275,113.996941 229.199509,113.784653 234.332001,114.136963 &#xA;&#x9;C235.722748,114.232430 236.996338,116.034737 238.643005,117.843826 &#xA;M32.502502,125.241531 &#xA;&#x9;C40.253342,125.241531 48.004185,125.241531 55.675423,125.241531 &#xA;&#x9;C55.675423,121.116547 55.675423,117.701828 55.675423,113.776863 &#xA;&#x9;C47.727604,113.776863 40.057812,113.776863 31.855825,113.776863 &#xA;&#x9;C38.686504,103.073944 44.919834,92.862595 51.639999,82.982384 &#xA;&#x9;C54.584160,78.653778 55.392620,74.343018 54.440674,69.153770 &#xA;&#x9;C42.006859,69.153770 29.629080,69.153770 17.313179,69.153770 &#xA;&#x9;C17.313179,73.006256 17.313179,76.564415 17.313179,80.444626 &#xA;&#x9;C24.740076,80.444626 31.818649,80.444626 39.497276,80.444626 &#xA;&#x9;C38.331707,82.487312 37.526306,84.066933 36.569195,85.548546 &#xA;&#x9;C30.883974,94.349243 25.417784,103.308144 19.347607,111.836372 &#xA;&#x9;C16.324394,116.083801 16.081951,120.250374 16.918270,125.242203 &#xA;&#x9;C21.868835,125.242203 26.686693,125.242203 32.502502,125.241531 &#xA;M91.141396,76.613213 &#xA;&#x9;C88.839226,81.634384 86.537056,86.655556 83.935921,92.328773 &#xA;&#x9;C80.481354,84.813515 77.536346,78.169785 74.332703,71.653206 &#xA;&#x9;C73.747620,70.463074 72.174370,69.127518 70.943550,69.005424 &#xA;&#x9;C67.372787,68.651215 63.744202,68.879944 59.280430,68.879944 &#xA;&#x9;C62.357307,74.820694 64.768379,80.246422 67.845787,85.263412 &#xA;&#x9;C75.104980,97.097824 80.151695,109.404572 77.966553,123.685333 &#xA;&#x9;C77.902878,124.101440 78.241943,124.579170 78.366371,124.948441 &#xA;&#x9;C82.227013,124.948441 85.960075,124.948441 89.988174,124.948441 &#xA;&#x9;C89.988174,121.693672 90.288017,118.690208 89.930168,115.767265 &#xA;&#x9;C88.977448,107.985344 91.327499,101.188591 95.103294,94.529236 &#xA;&#x9;C99.733963,86.362160 103.925980,77.946388 108.387756,69.486198 &#xA;&#x9;C95.826752,67.491570 94.945007,67.845062 91.141396,76.613213 &#xA;M188.498749,68.891342 &#xA;&#x9;C180.409058,68.891342 172.319382,68.891342 164.258530,68.891342 &#xA;&#x9;C164.258530,72.969093 164.258530,76.400139 164.258530,80.279617 &#xA;&#x9;C169.215973,80.279617 173.952835,80.279617 179.083008,80.279617 &#xA;&#x9;C179.083008,95.486588 179.083008,110.240517 179.083008,124.946365 &#xA;&#x9;C183.245071,124.946365 186.980469,124.946365 191.090881,124.946365 &#xA;&#x9;C191.090881,109.912453 191.090881,95.159561 191.090881,79.940872 &#xA;&#x9;C196.199615,79.940872 200.939514,79.940872 205.668167,79.940872 &#xA;&#x9;C205.668167,76.049667 205.668167,72.638580 205.668167,68.893005 &#xA;&#x9;C200.104340,68.893005 194.801239,68.893005 188.498749,68.891342 &#xA;z"></path>
<path fill="#0B4DA2" opacity="1.000000" stroke="none" d="&#xA;M308.521362,52.822788 &#xA;&#x9;C307.777344,49.733047 307.367310,46.922695 306.889679,44.123878 &#xA;&#x9;C306.711761,43.081245 306.581604,41.941753 306.057190,41.070652 &#xA;&#x9;C305.473724,40.101395 304.186737,39.528996 303.686157,38.540649 &#xA;&#x9;C299.441254,30.159544 291.899933,33.666557 285.439514,33.510452 &#xA;&#x9;C284.598419,33.490128 283.624939,34.798065 282.881744,35.639885 &#xA;&#x9;C280.460938,38.381851 277.890747,41.038929 275.853455,44.050285 &#xA;&#x9;C274.990753,45.325459 274.672943,47.641045 275.210205,49.068806 &#xA;&#x9;C277.001160,53.828197 275.735199,57.742111 272.185516,60.747383 &#xA;&#x9;C268.736481,63.667431 264.653198,64.099892 260.651794,61.444153 &#xA;&#x9;C256.938446,58.979618 255.119659,54.133495 256.503204,50.087006 &#xA;&#x9;C258.060608,45.531990 261.209259,42.636360 266.158630,43.065773 &#xA;&#x9;C269.071350,43.318478 270.727936,42.399681 272.369843,40.230072 &#xA;&#x9;C274.868042,36.928955 277.648071,33.841110 280.262512,30.717556 &#xA;&#x9;C273.386139,20.840059 273.240112,12.924371 279.675171,6.767353 &#xA;&#x9;C285.066254,1.609205 293.387115,1.297895 299.239655,6.035388 &#xA;&#x9;C306.072174,11.566140 306.724243,18.819984 300.913177,28.922132 &#xA;&#x9;C303.932190,31.753887 306.998627,34.799358 310.273315,37.601448 &#xA;&#x9;C311.293243,38.474178 312.896423,38.643414 314.197296,39.215008 &#xA;&#x9;C315.984192,40.000153 318.278076,40.414783 319.402863,41.775177 &#xA;&#x9;C322.648071,45.700108 324.072632,44.528805 325.741913,40.505703 &#xA;&#x9;C327.709686,35.763184 332.198303,33.812901 337.244843,34.887390 &#xA;&#x9;C341.662140,35.827911 345.067535,39.948647 345.209412,44.524937 &#xA;&#x9;C345.357910,49.315094 342.165924,53.568890 337.321228,54.713890 &#xA;&#x9;C332.976105,55.740826 329.512054,54.220451 326.886658,50.628426 &#xA;&#x9;C324.746307,47.700043 323.321442,48.760323 320.601837,50.699707 &#xA;&#x9;C313.625336,55.674740 315.766449,62.579170 315.592438,69.037636 &#xA;&#x9;C315.566071,70.015373 316.478790,71.427895 317.364349,71.954697 &#xA;&#x9;C323.396210,75.542732 325.305176,78.950470 324.001221,84.370888 &#xA;&#x9;C323.028290,88.415230 318.841278,91.759995 314.521851,91.943420 &#xA;&#x9;C310.076355,92.132210 305.731750,88.973129 304.369995,84.561714 &#xA;&#x9;C302.889191,79.764587 304.769135,75.753365 310.176758,72.131569 &#xA;&#x9;C310.429169,71.962524 310.599792,71.671410 310.526093,71.754135 &#xA;&#x9;C310.526093,66.945053 310.675476,62.459026 310.448273,57.992157 &#xA;&#x9;C310.364258,56.340500 309.394379,54.733906 308.521362,52.822788 &#xA;z"></path>
<path fill="#0B4DA2" opacity="1.000000" stroke="none" d="&#xA;M142.337906,99.550034 &#xA;&#x9;C143.361557,101.221283 144.194199,102.587547 145.583588,104.867386 &#xA;&#x9;C145.583588,92.413574 145.583588,81.032173 145.583588,69.270836 &#xA;&#x9;C149.596848,69.270836 153.331604,69.270836 157.467163,69.270836 &#xA;&#x9;C157.467163,87.637093 157.467163,106.172005 157.467163,125.225159 &#xA;&#x9;C153.998871,125.225159 150.505264,125.539299 147.119232,125.072769 &#xA;&#x9;C145.736969,124.882324 144.178497,123.231575 143.398560,121.850746 &#xA;&#x9;C138.090683,112.453476 132.973465,102.948593 127.780739,93.486122 &#xA;&#x9;C127.244278,92.508553 126.616173,91.581284 125.282211,89.415794 &#xA;&#x9;C125.282211,102.089211 125.282211,113.415543 125.282211,124.986267 &#xA;&#x9;C121.180138,124.986267 117.597931,124.986267 113.783401,124.986267 &#xA;&#x9;C113.783401,106.413948 113.783401,87.973160 113.783401,68.903954 &#xA;&#x9;C117.264626,68.903954 120.724052,68.628616 124.095909,69.051483 &#xA;&#x9;C125.295853,69.201965 126.601959,70.869286 127.316437,72.147751 &#xA;&#x9;C132.339386,81.135773 137.220474,90.203079 142.337906,99.550034 &#xA;z"></path>
<path fill="#0B4DA2" opacity="1.000000" stroke="none" d="&#xA;M271.894165,105.771034 &#xA;&#x9;C271.431122,112.115067 271.431122,118.389793 271.431122,124.949287 &#xA;&#x9;C267.014709,124.949287 263.280884,124.949287 259.260956,124.949287 &#xA;&#x9;C259.260956,106.462738 259.260956,87.911247 259.260956,69.073807 &#xA;&#x9;C267.102570,69.073807 274.891357,68.689468 282.624603,69.180351 &#xA;&#x9;C290.587372,69.685791 296.372101,74.665886 298.009796,81.270882 &#xA;&#x9;C300.284088,90.443237 297.739105,97.995087 290.746399,102.824081 &#xA;&#x9;C290.071472,103.290199 289.396759,103.756607 288.488617,104.384087 &#xA;&#x9;C292.405396,111.173576 296.253204,117.843483 300.511902,125.225647 &#xA;&#x9;C296.366699,125.225647 292.926971,125.436989 289.540131,125.106377 &#xA;&#x9;C288.416138,124.996658 287.083221,123.695000 286.440277,122.591843 &#xA;&#x9;C284.186340,118.724625 281.890076,114.830910 280.187225,110.708763 &#xA;&#x9;C278.641632,106.967201 276.371155,105.182808 271.894165,105.771034 &#xA;M271.028748,93.301003 &#xA;&#x9;C273.035950,95.569809 280.431396,96.082886 283.399109,94.073982 &#xA;&#x9;C287.126587,91.550804 286.767395,87.762520 285.758942,84.255394 &#xA;&#x9;C284.621155,80.298462 279.574860,79.178375 271.027710,80.583138 &#xA;&#x9;C271.027710,84.465874 271.027710,88.402748 271.028748,93.301003 &#xA;z"></path>
<path fill="#0B4DA2" opacity="1.000000" stroke="none" d="&#xA;M238.483368,117.448730 &#xA;&#x9;C236.996338,116.034737 235.722748,114.232430 234.332001,114.136963 &#xA;&#x9;C229.199509,113.784653 224.028275,113.996941 218.338074,113.996941 &#xA;&#x9;C217.205551,117.606056 216.044830,121.305092 214.886139,124.997627 &#xA;&#x9;C210.566772,124.997627 206.467941,124.997627 202.036377,124.997627 &#xA;&#x9;C208.037125,106.924477 213.890961,89.152534 219.929504,71.443573 &#xA;&#x9;C220.307770,70.334251 222.078644,69.089981 223.292007,68.988441 &#xA;&#x9;C227.084412,68.671082 230.920181,68.871925 234.970551,68.871925 &#xA;&#x9;C241.182465,87.556549 247.340408,106.078842 253.516785,124.656555 &#xA;&#x9;C241.550659,126.686104 240.810532,126.334869 238.483368,117.448730 &#xA;M226.867966,85.729004 &#xA;&#x9;C225.114136,91.368156 223.360306,97.007309 221.490662,103.018829 &#xA;&#x9;C225.897934,103.018829 229.793030,103.018829 234.010681,103.018829 &#xA;&#x9;C232.162766,96.937065 230.413513,91.118370 228.570374,85.329575 &#xA;&#x9;C228.493164,85.087090 227.540878,85.123238 226.867966,85.729004 &#xA;z"></path>
<path fill="#0B4DA2" opacity="1.000000" stroke="none" d="&#xA;M32.003529,125.241867 &#xA;&#x9;C26.686693,125.242203 21.868835,125.242203 16.918270,125.242203 &#xA;&#x9;C16.081951,120.250374 16.324394,116.083801 19.347607,111.836372 &#xA;&#x9;C25.417784,103.308144 30.883974,94.349243 36.569195,85.548546 &#xA;&#x9;C37.526306,84.066933 38.331707,82.487312 39.497276,80.444626 &#xA;&#x9;C31.818649,80.444626 24.740076,80.444626 17.313179,80.444626 &#xA;&#x9;C17.313179,76.564415 17.313179,73.006256 17.313179,69.153770 &#xA;&#x9;C29.629080,69.153770 42.006859,69.153770 54.440674,69.153770 &#xA;&#x9;C55.392620,74.343018 54.584160,78.653778 51.639999,82.982384 &#xA;&#x9;C44.919834,92.862595 38.686504,103.073944 31.855825,113.776863 &#xA;&#x9;C40.057812,113.776863 47.727604,113.776863 55.675423,113.776863 &#xA;&#x9;C55.675423,117.701828 55.675423,121.116547 55.675423,125.241531 &#xA;&#x9;C48.004185,125.241531 40.253342,125.241531 32.003529,125.241867 &#xA;z"></path>
<path fill="#0B4DA2" opacity="1.000000" stroke="none" d="&#xA;M91.327454,76.278458 &#xA;&#x9;C94.945007,67.845062 95.826752,67.491570 108.387756,69.486198 &#xA;&#x9;C103.925980,77.946388 99.733963,86.362160 95.103294,94.529236 &#xA;&#x9;C91.327499,101.188591 88.977448,107.985344 89.930168,115.767265 &#xA;&#x9;C90.288017,118.690208 89.988174,121.693672 89.988174,124.948441 &#xA;&#x9;C85.960075,124.948441 82.227013,124.948441 78.366371,124.948441 &#xA;&#x9;C78.241943,124.579170 77.902878,124.101440 77.966553,123.685333 &#xA;&#x9;C80.151695,109.404572 75.104980,97.097824 67.845787,85.263412 &#xA;&#x9;C64.768379,80.246422 62.357307,74.820694 59.280430,68.879944 &#xA;&#x9;C63.744202,68.879944 67.372787,68.651215 70.943550,69.005424 &#xA;&#x9;C72.174370,69.127518 73.747620,70.463074 74.332703,71.653206 &#xA;&#x9;C77.536346,78.169785 80.481354,84.813515 83.935921,92.328773 &#xA;&#x9;C86.537056,86.655556 88.839226,81.634384 91.327454,76.278458 &#xA;z"></path>
<path fill="#0B4DA2" opacity="1.000000" stroke="none" d="&#xA;M188.998444,68.892174 &#xA;&#x9;C194.801239,68.893005 200.104340,68.893005 205.668167,68.893005 &#xA;&#x9;C205.668167,72.638580 205.668167,76.049667 205.668167,79.940872 &#xA;&#x9;C200.939514,79.940872 196.199615,79.940872 191.090881,79.940872 &#xA;&#x9;C191.090881,95.159561 191.090881,109.912453 191.090881,124.946365 &#xA;&#x9;C186.980469,124.946365 183.245071,124.946365 179.083008,124.946365 &#xA;&#x9;C179.083008,110.240517 179.083008,95.486588 179.083008,80.279617 &#xA;&#x9;C173.952835,80.279617 169.215973,80.279617 164.258530,80.279617 &#xA;&#x9;C164.258530,76.400139 164.258530,72.969093 164.258530,68.891342 &#xA;&#x9;C172.319382,68.891342 180.409058,68.891342 188.998444,68.892174 &#xA;z"></path>
<path fill="#F3F2F1" opacity="1.000000" stroke="none" d="&#xA;M271.028229,92.820312 &#xA;&#x9;C271.027710,88.402748 271.027710,84.465874 271.027710,80.583138 &#xA;&#x9;C279.574860,79.178375 284.621155,80.298462 285.758942,84.255394 &#xA;&#x9;C286.767395,87.762520 287.126587,91.550804 283.399109,94.073982 &#xA;&#x9;C280.431396,96.082886 273.035950,95.569809 271.028229,92.820312 &#xA;z"></path>
<path fill="#ECECEB" opacity="1.000000" stroke="none" d="&#xA;M226.932129,85.379295 &#xA;&#x9;C227.540878,85.123238 228.493164,85.087090 228.570374,85.329575 &#xA;&#x9;C230.413513,91.118370 232.162766,96.937065 234.010681,103.018829 &#xA;&#x9;C229.793030,103.018829 225.897934,103.018829 221.490662,103.018829 &#xA;&#x9;C223.360306,97.007309 225.114136,91.368156 226.932129,85.379295 &#xA;z"></path>
</svg>